<svg width="41" height="40" viewBox="0 0 41 40" fill="none" xmlns="http://www.w3.org/2000/svg">
<g id="check">
<mask id="mask0_140_1221" style="mask-type:alpha" maskUnits="userSpaceOnUse" x="0" y="0" width="41" height="40">
<rect id="Bounding box" x="0.286133" width="40" height="40" fill="#D9D9D9"/>
</mask>
<g mask="url(#mask0_140_1221)">
<path id="check_2" d="M16.0921 30.0556C15.8143 30.0556 15.5435 30.0023 15.2796 29.8959C15.0157 29.7894 14.7773 29.6297 14.5643 29.4167L7.14766 22C6.72171 21.5741 6.51106 21.0533 6.5157 20.4375C6.52034 19.8218 6.73562 19.3009 7.16153 18.875C7.58745 18.4491 8.10596 18.2362 8.71707 18.2362C9.32819 18.2362 9.85596 18.4491 10.3004 18.875L16.0921 24.6667L30.2727 10.5139C30.6986 10.088 31.2148 9.86808 31.8213 9.8542C32.4278 9.84031 32.9486 10.0602 33.3837 10.5139C33.8097 10.9398 34.0227 11.463 34.0227 12.0834C34.0227 12.7037 33.8097 13.2269 33.3837 13.6528L17.6199 29.4167C17.4069 29.6297 17.1685 29.7894 16.9046 29.8959C16.6407 30.0023 16.3699 30.0556 16.0921 30.0556Z" fill="#43A047"/>
</g>
</g>
</svg>
