<svg width="41" height="40" viewBox="0 0 41 40" fill="none" xmlns="http://www.w3.org/2000/svg">
<g id="close">
<mask id="mask0_140_1237" style="mask-type:alpha" maskUnits="userSpaceOnUse" x="0" y="0" width="41" height="40">
<rect id="Bounding box" x="0.286133" width="40" height="40" fill="#D9D9D9"/>
</mask>
<g mask="url(#mask0_140_1237)">
<path id="close_2" d="M20.2863 23.0555L12.2863 31.0555C11.8603 31.4815 11.351 31.6945 10.7585 31.6945C10.1659 31.6945 9.65663 31.4815 9.23071 31.0555C8.80477 30.6296 8.5918 30.1204 8.5918 29.5278C8.5918 28.9352 8.80477 28.4259 9.23071 28L17.2307 20L9.23071 12C8.80477 11.5741 8.5918 11.0648 8.5918 10.4722C8.5918 9.87963 8.80477 9.37037 9.23071 8.94446C9.65663 8.51851 10.1659 8.30554 10.7585 8.30554C11.351 8.30554 11.8603 8.51851 12.2863 8.94446L20.2863 16.9445L28.2863 8.94446C28.7122 8.51851 29.2215 8.30554 29.814 8.30554C30.4066 8.30554 30.9159 8.51851 31.3418 8.94446C31.7677 9.37037 31.9807 9.87963 31.9807 10.4722C31.9807 11.0648 31.7677 11.5741 31.3418 12L23.3418 20L31.3418 28C31.7677 28.4259 31.9807 28.9352 31.9807 29.5278C31.9807 30.1204 31.7677 30.6296 31.3418 31.0555C30.9159 31.4815 30.4066 31.6945 29.814 31.6945C29.2215 31.6945 28.7122 31.4815 28.2863 31.0555L20.2863 23.0555Z" fill="#C62828"/>
</g>
</g>
</svg>
