<?xml version="1.0" standalone="no"?>
<!DOCTYPE svg PUBLIC "-//W3C//DTD SVG 20010904//EN"
 "http://www.w3.org/TR/2001/REC-SVG-20010904/DTD/svg10.dtd">
<svg version="1.0" xmlns="http://www.w3.org/2000/svg"
 width="780.000000pt" height="780.000000pt" viewBox="0 0 780.000000 780.000000"
 preserveAspectRatio="xMidYMid meet">
<metadata>
Created by potrace 1.14, written by Peter Selinger 2001-2017
</metadata>
<g transform="translate(0.000000,780.000000) scale(0.100000,-0.100000)"
fill="#000000" stroke="none">
<path d="M3747 6639 c-37 -7 -2923 -1037 -3235 -1155 -197 -74 -363 -234 -448
-434 -65 -150 -64 -132 -64 -1157 0 -889 1 -931 20 -1010 62 -260 250 -477
491 -567 448 -167 3181 -1141 3232 -1152 81 -17 220 -18 302 -3 45 8 2867
1013 3243 1155 197 74 363 234 448 434 65 150 64 132 64 1157 0 889 -1 931
-20 1010 -62 260 -250 477 -491 567 -448 167 -3181 1141 -3232 1152 -75 15
-235 17 -310 3z m246 -239 c73 -14 3211 -1140 3279 -1177 113 -61 209 -176
257 -307 l26 -71 3 -905 c2 -639 0 -925 -8 -972 -28 -166 -153 -333 -301 -402
-41 -19 -778 -287 -1639 -596 -1688 -605 -1653 -594 -1788 -572 -78 13 -3213
1135 -3294 1179 -113 61 -209 176 -257 307 l-26 71 -3 905 c-2 639 0 925 8
972 28 166 153 333 301 402 107 50 3192 1155 3253 1165 73 12 124 12 189 1z"/>
<path d="M3715 6211 c-60 -22 -272 -98 -470 -169 l-360 -130 -37 -56 c-183
-283 -167 -655 42 -931 l49 -65 -77 0 -78 0 -31 53 c-107 176 -145 307 -147
497 -1 150 14 234 63 355 16 39 27 71 26 73 -8 8 -2056 -733 -2104 -761 -68
-40 -115 -94 -155 -177 l-31 -65 0 -935 0 -935 32 -67 c34 -72 107 -154 164
-183 18 -10 515 -191 1103 -402 808 -290 1072 -381 1077 -371 4 7 157 235 339
506 l331 492 70 0 c39 0 69 -4 67 -9 -1 -5 -158 -239 -348 -521 -190 -282
-344 -515 -343 -519 1 -3 205 -79 455 -169 481 -173 531 -186 625 -163 36 9
746 260 911 322 22 8 6 34 -321 521 -189 282 -347 519 -351 526 -6 10 8 12 65
10 l72 -3 337 -500 c211 -315 341 -499 351 -498 7 2 491 174 1074 383 816 293
1072 389 1113 417 57 39 110 104 145 180 l22 48 0 930 0 930 -23 57 c-31 76
-79 137 -144 181 -41 28 -277 117 -1073 403 -561 201 -1028 369 -1037 371 -14
4 -12 -8 14 -74 107 -275 83 -574 -68 -823 l-48 -80 -78 0 -77 0 51 68 c58 75
118 197 143 287 9 33 19 112 22 175 4 96 2 130 -16 205 -22 92 -92 249 -133
296 -18 22 -114 59 -478 190 -434 155 -459 163 -540 166 -78 3 -94 0 -195 -36z
m368 -319 c129 -64 216 -183 236 -322 22 -158 -51 -329 -174 -407 l-44 -28 -1
-117 c0 -136 -11 -158 -75 -158 -22 0 -35 -5 -35 -13 0 -19 -41 -54 -72 -62
-36 -9 -96 20 -104 51 -5 19 -13 24 -40 24 -63 0 -74 23 -74 154 l0 114 -50
37 c-208 152 -232 462 -51 643 92 93 173 123 317 119 90 -2 107 -6 167 -35z
m1300 -1493 c45 -21 60 -85 32 -139 -33 -64 -127 -77 -162 -23 -58 88 36 205
130 162z m-2394 -78 c59 -31 125 -100 155 -164 72 -154 52 -378 -48 -517 l-36
-51 80 -95 c44 -52 80 -99 80 -103 0 -8 -104 -91 -114 -91 -2 0 -36 45 -75 99
l-71 100 -48 -22 c-38 -18 -65 -22 -142 -22 -87 0 -100 3 -149 30 -137 76
-214 244 -195 430 20 212 129 365 299 422 64 21 210 12 264 -16z m522 -277
c-13 -307 -10 -340 34 -392 35 -41 75 -55 145 -50 79 6 110 29 133 98 17 50
18 77 10 330 -5 151 -6 278 -3 281 3 4 42 13 87 22 l83 14 -6 -271 c-3 -149
-10 -302 -15 -340 -17 -122 -77 -202 -189 -255 -48 -23 -68 -26 -155 -26 -92
0 -104 2 -153 29 -66 37 -108 93 -121 160 -5 28 -12 191 -15 362 l-5 310 87
15 c48 8 89 11 91 6 2 -4 -2 -136 -8 -293z m849 35 c-10 -237 -6 -537 6 -596
4 -23 2 -23 -87 -23 l-91 0 7 88 c9 105 9 422 -1 623 l-6 146 88 15 c49 8 90
14 91 13 2 -1 -2 -120 -7 -266z m380 257 c58 -2 168 -1 245 3 77 5 141 7 143
6 1 -1 -2 -32 -8 -69 -10 -64 -19 -79 -215 -369 -115 -169 -199 -303 -192
-305 6 -1 107 4 222 11 116 8 211 14 211 13 2 -1 -15 -124 -21 -151 -4 -19
-10 -20 -137 -14 -73 4 -212 4 -309 1 l-177 -5 13 69 c11 66 20 81 214 367
112 164 201 301 198 303 -3 3 -95 -1 -206 -8 -111 -7 -201 -13 -201 -13 0 0 7
38 15 85 8 47 15 86 15 87 0 2 19 1 43 -2 23 -2 89 -6 147 -9z m-2914 -27 c-3
-17 -6 -47 -6 -65 l0 -34 -144 0 -143 0 -7 -52 c-3 -29 -6 -81 -6 -115 l0 -63
125 0 125 0 0 -42 c0 -90 3 -88 -131 -88 -87 0 -121 -3 -124 -13 -3 -7 -2 -64
2 -127 l8 -115 154 -3 154 -3 -7 -46 c-3 -25 -6 -54 -6 -64 0 -18 -13 -19
-236 -19 l-236 0 8 43 c9 50 8 673 -1 770 l-7 67 242 0 243 0 -7 -31z m3939
-144 l-7 -85 76 0 c82 0 80 2 70 -62 l-7 -38 -73 0 -74 0 0 -174 c0 -199 0
-200 79 -194 l49 3 7 -40 c5 -34 3 -43 -19 -61 -64 -55 -156 -66 -209 -24 -53
42 -60 76 -52 260 4 92 4 181 0 199 -6 28 -10 31 -46 31 -42 0 -45 6 -33 69 6
27 10 31 40 31 l34 0 0 68 0 69 78 15 c42 9 81 16 86 17 4 0 5 -37 1 -84z
m-3475 -65 c66 -19 67 -21 25 -96 -21 -38 -39 -71 -41 -73 -1 -2 -31 11 -65
28 -70 35 -95 38 -127 15 -49 -34 -24 -66 93 -119 120 -55 165 -105 165 -185
0 -119 -110 -220 -241 -220 -64 0 -166 44 -192 84 -14 21 -13 25 33 77 l48 54
23 -21 c45 -41 93 -64 135 -64 48 0 67 17 62 57 -3 24 -16 35 -103 79 -148 77
-191 137 -165 233 35 130 190 197 350 151z m4038 9 c60 -12 123 -63 154 -123
27 -52 36 -184 18 -265 -25 -114 -90 -205 -175 -247 -49 -23 -64 -26 -126 -22
-57 4 -79 11 -112 35 -160 112 -151 407 18 562 72 65 130 81 223 60z m-922
-84 c-9 -107 -9 -379 0 -467 5 -54 4 -68 -7 -68 -8 0 -47 -6 -88 -14 l-73 -14
7 76 c9 94 9 435 0 496 l-7 44 79 15 c43 8 82 15 87 16 5 0 6 -36 2 -84z"/>
<path d="M3780 5843 c-144 -50 -232 -177 -232 -333 0 -119 47 -215 139 -285
42 -32 51 -35 114 -35 l69 0 0 102 0 103 -72 72 -72 73 22 22 22 22 65 -64 65
-64 65 64 65 64 22 -22 22 -22 -72 -73 -72 -72 0 -103 0 -102 66 0 c56 0 71 4
109 30 94 65 147 167 148 285 1 159 -90 289 -236 339 -60 20 -178 20 -237 -1z"/>
<path d="M3760 5085 l0 -35 140 0 140 0 0 35 0 35 -140 0 -140 0 0 -35z"/>
<path d="M3760 4965 l0 -35 140 0 140 0 0 35 0 35 -140 0 -140 0 0 -35z"/>
<path d="M2712 4179 c-82 -41 -115 -117 -115 -269 0 -75 5 -119 18 -155 42
-120 120 -182 216 -173 27 3 52 8 55 11 3 3 -28 52 -69 109 -82 112 -82 113
-19 150 l28 17 75 -89 c86 -104 90 -103 109 13 31 182 -28 357 -133 396 -46
18 -118 13 -165 -10z"/>
<path d="M6174 3942 c-17 -11 -37 -35 -45 -53 -21 -50 -18 -175 5 -223 50
-101 180 -101 222 0 8 19 14 67 14 109 0 123 -34 175 -117 182 -36 3 -56 -1
-79 -15z"/>
</g>
</svg>
